<?xml version="1.0" encoding="utf-8"?>
<!-- Generator: Adobe Illustrator 22.1.0, SVG Export Plug-In . SVG Version: 6.00 Build 0)  -->
<svg version="1.1" id="Layer_1" xmlns="http://www.w3.org/2000/svg" xmlns:xlink="http://www.w3.org/1999/xlink" x="0px" y="0px"
	 viewBox="0 0 813 179" style="enable-background:new 0 0 813 179;" xml:space="preserve">
<style type="text/css">
	.st0{fill-rule:evenodd;clip-rule:evenodd;fill:#486EAD;}
	.st1{fill-rule:evenodd;clip-rule:evenodd;fill:#3B2A98;}
	.st2{fill-rule:evenodd;clip-rule:evenodd;fill:#81D8DF;}
	.st3{fill-rule:evenodd;clip-rule:evenodd;fill:#0092CA;}
</style>
<g>
	<polygon class="st0" points="116.5,36.8 201.9,11.1 121,21.8 	"/>
	<polygon class="st0" points="116.5,36.8 31,11.1 112,21.8 	"/>
	<polygon class="st1" points="116.5,40.6 69.3,26.3 44,33.7 36.5,48.8 71.1,38.3 74.6,49.8 48.5,57.9 43.7,71.5 77.6,61.7 
		81.6,74.5 96.7,98.1 87.8,47 104.1,52.2 107.9,127.1 116.6,173 116.6,173 125,127.1 128.9,52.2 145.2,47 136.2,98.1 151.3,74.5 
		155.3,61.7 189.2,71.5 184.4,57.9 158.3,49.8 161.8,38.3 196.3,48.8 188.9,33.7 163.6,26.3 	"/>
	<polygon class="st2" points="132.7,54.2 140.5,51.7 128,140.2 	"/>
	<polygon class="st2" points="126.7,136.2 128.4,157 120.2,171.3 	"/>
	<polygon class="st3" points="69,23.3 101.8,13.5 66,17.1 58,20.5 10.3,42 	"/>
	<polygon class="st3" points="132.2,13.5 164.7,23.3 222.6,42 176.8,21.1 176.8,21.1 167,17 	"/>
	<polygon class="st1" points="382.1,97 401,97 401,75.6 414.7,75.6 414.7,97 433.6,97 433.6,50.8 414.7,50.8 414.7,67.9 401,67.9 
		401,50.8 382.1,50.8 	"/>
	<path class="st1" d="M767.1,81.6c0-8.2,17.1-7.7,17.1-1.7c0,6.6-0.1,9.4-8.6,9.4C770,89.3,767.1,87.1,767.1,81.6L767.1,81.6z
		 M782.5,68.7c-20,4.6-15.1-9.4-11.1-9.4C776.3,59.3,788.7,57.4,782.5,68.7L782.5,68.7z M753.4,61c0,4.8,1.5,7.5,3.4,10.3
		c-8.6,6.3-5.4,25.7,6,25.7h26.6c6.9,0,10.3-7.6,10.3-15.4c0-5.8-2.1-7-4.3-10.3c5.3-10,2.3-20.5-6-20.5h-28.3
		C757.4,50.8,753.4,57.3,753.4,61L753.4,61z"/>
	<path class="st1" d="M566.5,61.9c0,15.2,21.5,19.3,27.4,27.4h-26.6V97h37.7c6,0,8.6-6,8.6-12c0-11.9-16.8-17.1-26.6-25.7
		c4.9,0,9.7,0,14.6,0c9.9,0.1,11.1,1,11.1-6c0-2-0.6-2.6-2.6-2.6H575C569.7,50.8,566.5,57,566.5,61.9L566.5,61.9z"/>
	<path class="st1" d="M655.6,97h33.4v-7.7h-22.3c2.4-3.5,4.4-6.7,7-10.1c2.5-3.4,4.1-7.2,7.6-9.6l18,27.4h23.1
		c-0.3-3.3-1.2-4.3-2.9-6.5c-1.6-2.2-2.6-3.4-3.9-5.5c-2.6-3.9-5-7.9-7.9-11.7c-3-4-5.2-7.5-8-11.7c-6.3-9.6-6.2-10.8-11.5-10.8
		c-3.3,0-22.1,29.2-25.3,33.7C660.7,87.4,655.9,93.7,655.6,97L655.6,97z"/>
	<path class="st1" d="M514.2,70.4c0,8.4-0.7,12,3.7,19.4c1.9,3.1,5.5,7.2,10,7.2h36v-7.7c-31.5,0-28.3,3.3-28.3-23.1
		c0-3.1,0.7-4.8,1.7-6.8c4.9,0,9.7,0,14.6,0c12.4,0,12,2.2,12-8.6h-36C519.9,50.8,514.2,62.1,514.2,70.4L514.2,70.4z"/>
	<path class="st1" d="M275.8,70.4c0,8.4-0.6,12,3.8,19.4c1.9,3.1,5.5,7.2,9.9,7.2h36v-7.7c-31.5,0-28.3,3.3-28.3-23.1
		c0-3.1,0.7-4.8,1.7-6.8c4.8,0,9.7,0,14.6,0c12.4,0,12,2.2,12-8.6h-36C281.6,50.8,275.8,62.1,275.8,70.4L275.8,70.4z"/>
	<path class="st1" d="M329,70.4c0,8.4-0.7,12,3.7,19.4c1.9,3.1,5.5,7.2,10,7.2h35.1v-7.7c-30.5,0-27.4,3.2-27.4-23.1
		c0-3.1,0.7-4.8,1.7-6.8c4.6,0,9.2,0,13.7,0c12.4,0,12,2.2,12-8.6h-35.1C334.7,50.8,329,62.1,329,70.4L329,70.4z"/>
	<path class="st1" d="M437.9,70.4v24c0,4.3,7.3,2.6,18.9,2.6c3.6,0,2.7-3.9,2.6-7.7l-0.1-21.5c0-5.2,0.6-5.5,2.6-8.5
		c4.6,0,9.1,0,13.7,0c12.4,0,12,2.2,12-8.6h-36C441.6,50.8,437.9,60.3,437.9,70.4L437.9,70.4z"/>
	<path class="st1" d="M615.3,56.7c0,4,4.8,2.6,14.6,2.6V97h19.7V59.3c16.9,0,14.6,1.9,14.6-8.6h-48.9V56.7z"/>
	<path class="st1" d="M229.5,59.3h12V97h19.7V59.3c16.9,0,14.6,1.9,14.6-8.6h-46.3V59.3z"/>
	<rect x="491" y="50.8" class="st1" width="18.9" height="46.2"/>
	<path class="st1" d="M725.9,53.3c0,5.6-0.1,6,5.2,6V97h18V55.9c0-6.9-14.4-5.1-20.6-5.1C726.5,50.8,725.9,51.4,725.9,53.3
		L725.9,53.3z"/>
	<path class="st1" d="M518.7,119.2c1.7,3,0.9,10,0.9,13.7h7.7c0-1.5-0.2-5.7-0.1-6.9c0.5-3.2-0.3-2.5,3.5-3.4
		c1.4,2.6,0.9,5.8,0.9,10.3h7.7c0-1.5-0.2-5.7-0.1-6.9c0.5-3.2-0.3-2.5,3.5-3.4c1.4,2.6,0.9,5.8,0.9,10.3h7.7
		c0-7.3,0.5-7.6-0.9-13.7c-8.9-2.1-7.2-0.1-10.7,0.5c-5,0.7,0.8-1.3-7.3-1.3c-4.2,0-2.4,1.8-6,0.8
		C520.8,117.7,523.8,118.6,518.7,119.2L518.7,119.2z"/>
	<path class="st1" d="M230.6,132.9h16.3c0.9,0,4.1,3.6,4.3-5.1c-12,0-11.7,1-12-3.4c13.9,0,7.5,2.6,11.2-5.1h-11.2v-2.6h11.2v-5.1
		h-19.7V132.9z"/>
	<path class="st1" d="M496.4,132.9h16.3c0.9,0,4.1,3.6,4.3-5.1c-12,0-11.7,1-12-3.4c13.9,0,7.5,2.6,11.2-5.1h-11.2v-2.6h11.2v-5.1
		h-19.7V132.9z"/>
	<path class="st1" d="M374.6,132.9h16.3c3.6,0,0.5,2.6,3.2-0.3c1.1-1.1,1-2.9,1.1-4.8c-12,0-11.7,1-12-3.4c13.9,0,7.4,2.6,11.1-5.1
		h-11.1v-2.6h11.1v-5.1h-19.7V132.9z"/>
	<path class="st1" d="M598.4,120.9c0,5,6.7,18.4,14.7,8.6c0.1-0.1,0.3-0.4,0.4-0.5c0.1-0.1,0.3-0.3,0.4-0.5c1.3,5,3.5,4.3,9.4,4.3
		c0.9-3.2,0.8-1.8,2.7-4.1c3.2-3.9,2.4-4.1,2.4-10.4h-6.9c0,5,0.6,7.5-3.4,8.6l-0.9-8.6h-6.9c0,11.2-0.3,3.9-1.7,9.4
		c-3.2-2.4-2.6-4-2.6-9.4C600.6,118.3,598.4,117.6,598.4,120.9L598.4,120.9z"/>
	<path class="st1" d="M562.4,126c1.2-4.5,2.3-3.4,6-2.6v4.3C564.2,128.7,564.9,129.8,562.4,126L562.4,126z M554.7,120.9V138h7.7v-6
		c13.6,6.5,20.9-13.7,5.1-13.7c-2.1,0-3.3,0.5-4.4,0.5C559.8,118.9,554.7,116.5,554.7,120.9L554.7,120.9z"/>
	<path class="st1" d="M280.3,125.2c2.5-3.7,1.8-2.7,6-1.7v4.3c-2.4,0.6-2,1.2-3.9,0.5C280,127.3,281,126.5,280.3,125.2L280.3,125.2z
		 M272.6,120.9V138h7.7v-6c5.4,2.6,12.1,0.6,13.7-4.3c3.6-11.3-12.2-8.9-13-8.8C277.7,118.9,272.6,116.5,272.6,120.9L272.6,120.9z"
		/>
	<path class="st1" d="M463.8,115.8v17.1h7.7c0-10.5-0.9-9.2,3.4-10.3c1.4,2.6,0.9,5.8,0.9,10.3h7.7c0-11.6,2.7-17.1-12-13.7v-7.7
		h-8.6C463.4,113.4,463.8,113.5,463.8,115.8L463.8,115.8z"/>
	<path class="st1" d="M396.9,119.2c1.4,6.1,0.9,6.4,0.9,13.7h7.7c0-10.5-0.9-9.2,3.4-10.3c1.4,2.6,0.9,5.8,0.9,10.3h7.7
		c0-13.9,1.6-14.5-7.7-14.5c-4.7,0-1,1.7-5.8,0.6C399.4,117.8,401.1,118.8,396.9,119.2L396.9,119.2z"/>
	<path class="st1" d="M711.4,49.9c0,20-1.6,19.7,4.3,19.7c3.3,0,4.2-4.3,5.2-6.8c3.1-7.8,2.6-7.1,2.6-15.4
		C715,47.3,711.4,46.2,711.4,49.9L711.4,49.9z"/>
	<path class="st1" d="M252.9,120.9c0,2.6,1.5,2.9,3.4,3.4c-1.5,5.6-3.4,0.6-3.4,8.6c10.7,0,3.4-1,9.4-2.6c4.2,2.8,0.4,2.6,9.4,2.6
		c-0.1-5.3-1.8-4-4.3-7.7c2.8-1.9,4.2-2.5,4.3-6.9c-10,0-6-0.3-10.3,2.6c-2.3-3.1-3.7-2.6-8.6-2.6V120.9z"/>
	<path class="st1" d="M640.4,124.3h-4.3C638.1,121.6,638.4,121.6,640.4,124.3L640.4,124.3z M629.3,125.2c0,10.9,13.4,7.2,18,6.8
		c-0.3-3.4-0.2-4.4-4-4.1c-1.3,0.1-3.5,2.2-7.1-1h12c0-7.7-3.6-8.6-11.1-8.6C632.8,118.3,629.3,120.8,629.3,125.2L629.3,125.2z"/>
	<path class="st1" d="M354.9,124.3h-4.3C352.6,121.6,352.9,121.6,354.9,124.3L354.9,124.3z M343.8,125.2c0,10.9,13.4,7.2,18,6.8
		c-0.6-6.9-3-3.3-7.7-3.5c-2.2-0.1-2.2-0.5-3.5-1.6h12c0-7.7-3.7-8.6-11.2-8.6C347.3,118.3,343.8,120.8,343.8,125.2L343.8,125.2z"/>
	<path class="st1" d="M313.8,127.7v-4.3c4.2-1,3.5-2,6,1.7C318.6,129.7,317.5,128.6,313.8,127.7L313.8,127.7z M306.9,125.2
		c0,10.7,19.7,10.7,19.7,0C326.6,115.8,306.9,115.8,306.9,125.2L306.9,125.2z"/>
	<path class="st1" d="M584.7,127.7v-4.3c3.7-0.9,4.8-1.9,6,2.6C588.2,129.8,588.9,128.7,584.7,127.7L584.7,127.7z M577.8,125.2
		c0,10.7,19.7,10.7,19.7,0C597.5,115.8,577.8,115.8,577.8,125.2L577.8,125.2z"/>
	<rect x="538.2" y="67.9" class="st1" width="25.7" height="7.7"/>
	<rect x="461.9" y="67.9" class="st1" width="25.7" height="7.7"/>
	<rect x="299.8" y="67.9" class="st1" width="25.7" height="7.7"/>
	<path class="st1" d="M297.5,115.8v17.1h7.7v-21.4h-8.6C297.1,113.4,297.5,113.5,297.5,115.8L297.5,115.8z"/>
	<path class="st1" d="M445.8,125.2c0,9.1,8.2,7.7,15.4,7.7c-0.2-8.2-3-0.9-8.6-6.8c2.6-4.8,2.7-3,7.7-2.6c1.3-5.6,1.7-5.1-6.9-5.1
		C449.6,118.3,445.8,121.1,445.8,125.2L445.8,125.2z"/>
	<path class="st1" d="M328.3,119.2l0.9,13.7h7.7c0-10.9-0.9-10.3,5.2-10.3c0.2-2.3,0.4-2.3,0.9-4.3L328.3,119.2z"/>
	<path class="st1" d="M419.2,119.2l0.9,13.7h7.7c0-10.9-0.9-10.3,5.2-10.3c0.2-2.3,0.4-2.3,0.9-4.3L419.2,119.2z"/>
	<path class="st1" d="M649.8,119.2l0.9,13.7h7.7c0-10.9-0.9-10.3,5.2-10.3c0.2-2.3,0.4-2.3,0.9-4.3c-1.9,0-3.2,0.2-4.8,0.3
		L649.8,119.2z"/>
	<rect x="435.5" y="118.3" class="st1" width="7.7" height="14.5"/>
	<path class="st1" d="M435.5,114.1c0,3.8,7.7,3.8,7.7,0C443.2,110.3,435.5,110.3,435.5,114.1L435.5,114.1z"/>
</g>
</svg>
