<?xml version="1.0" encoding="utf-8"?>
<!-- Generator: Adobe Illustrator 22.1.0, SVG Export Plug-In . SVG Version: 6.00 Build 0)  -->
<svg version="1.1" id="Layer_1" xmlns="http://www.w3.org/2000/svg" xmlns:xlink="http://www.w3.org/1999/xlink" x="0px" y="0px"
	 viewBox="0 0 396.9 396.9" style="enable-background:new 0 0 396.9 396.9;" xml:space="preserve">
<style type="text/css">
	.st0{fill-rule:evenodd;clip-rule:evenodd;fill:#486EAD;}
	.st1{fill-rule:evenodd;clip-rule:evenodd;fill:#3B2A98;}
	.st2{fill-rule:evenodd;clip-rule:evenodd;fill:#81D8DF;}
	.st3{fill-rule:evenodd;clip-rule:evenodd;fill:#00A3D3;}
</style>
<g>
	<polygon class="st0" points="198.4,102.7 348.2,57.5 206.3,76.2 	"/>
	<polygon class="st0" points="198.4,102.7 48.4,57.5 190.5,76.2 	"/>
	<polygon class="st1" points="198.4,107.2 115.6,82.2 71.3,95.1 58.2,121.6 118.8,103.2 124.9,123.5 79.1,137.6 70.7,161.5 
		130.3,144.3 137.2,166.6 163.8,208 148,118.5 176.7,127.6 183.4,259 198.6,339.4 198.6,339.4 213.5,259 220.2,127.6 248.8,118.5 
		233.1,208 259.6,166.6 266.5,144.3 325.9,161.5 317.6,137.6 271.9,123.5 277.9,103.2 338.5,121.6 325.4,95.1 281.1,82.2 	"/>
	<polygon class="st2" points="224.1,131.1 237.7,126.7 215.8,282 	"/>
	<polygon class="st2" points="213.1,275 216.1,311.4 201.7,336.5 	"/>
	<polygon class="st3" points="115.1,76.9 172.7,59.7 109.9,66 95.9,72 12.3,109.7 	"/>
	<polygon class="st3" points="226.1,59.7 283,76.9 384.6,109.7 304.2,73.1 304.2,73.1 287,65.9 	"/>
</g>
</svg>
