<?xml version="1.0" encoding="utf-8"?>
<!-- Generator: Adobe Illustrator 22.1.0, SVG Export Plug-In . SVG Version: 6.00 Build 0)  -->
<svg version="1.1" id="Layer_1" xmlns="http://www.w3.org/2000/svg" xmlns:xlink="http://www.w3.org/1999/xlink" x="0px" y="0px"
	 viewBox="0 0 813 179" style="enable-background:new 0 0 813 179;" xml:space="preserve">
<style type="text/css">
	.st0{fill-rule:evenodd;clip-rule:evenodd;fill:#F7F7F7;}
</style>
<g>
	<polygon class="st0" points="120.5,33.8 205.9,8.1 125,18.8 	"/>
	<polygon class="st0" points="120.5,33.8 35,8.1 116,18.8 	"/>
	<polygon class="st0" points="120.5,37.6 73.3,23.3 48,30.7 40.5,45.8 75.1,35.3 78.6,46.8 52.5,54.9 47.7,68.5 81.6,58.7 
		85.6,71.5 100.7,95.1 91.8,44 108.1,49.2 111.9,124.1 120.6,170 120.6,170 129,124.1 132.9,49.2 149.2,44 140.2,95.1 155.3,71.5 
		159.3,58.7 193.2,68.5 188.4,54.9 162.3,46.8 165.8,35.3 200.3,45.8 192.9,30.7 167.6,23.3 	"/>
	<polygon class="st0" points="136.7,51.2 144.5,48.7 132,137.2 	"/>
	<polygon class="st0" points="130.7,133.2 132.4,154 124.2,168.3 	"/>
	<polygon class="st0" points="73,20.3 105.8,10.5 70,14.1 62,17.5 14.3,39 	"/>
	<polygon class="st0" points="136.2,10.5 168.7,20.3 226.6,39 180.8,18.1 180.8,18.1 171,14 	"/>
	<polygon class="st0" points="386.1,94 405,94 405,72.6 418.7,72.6 418.7,94 437.6,94 437.6,47.8 418.7,47.8 418.7,64.9 405,64.9 
		405,47.8 386.1,47.8 	"/>
	<path class="st0" d="M771.1,78.6c0-8.2,17.1-7.7,17.1-1.7c0,6.6-0.1,9.4-8.6,9.4C774,86.3,771.1,84.1,771.1,78.6L771.1,78.6z
		 M786.5,65.7c-20,4.6-15.1-9.4-11.1-9.4C780.3,56.3,792.7,54.4,786.5,65.7L786.5,65.7z M757.4,58c0,4.8,1.5,7.5,3.4,10.3
		c-8.6,6.3-5.4,25.7,6,25.7h26.6c6.9,0,10.3-7.6,10.3-15.4c0-5.8-2.1-7-4.3-10.3c5.3-10,2.3-20.5-6-20.5h-28.3
		C761.4,47.8,757.4,54.3,757.4,58L757.4,58z"/>
	<path class="st0" d="M570.5,58.9c0,15.2,21.5,19.3,27.4,27.4h-26.6V94h37.7c6,0,8.6-6,8.6-12c0-11.9-16.8-17.1-26.6-25.7
		c4.9,0,9.7,0,14.6,0c9.9,0.1,11.1,1,11.1-6c0-2-0.6-2.6-2.6-2.6H579C573.7,47.8,570.5,54,570.5,58.9L570.5,58.9z"/>
	<path class="st0" d="M659.6,94h33.4v-7.7h-22.3c2.4-3.5,4.4-6.7,7-10.1c2.5-3.4,4.1-7.2,7.6-9.6l18,27.4h23.1
		c-0.3-3.3-1.2-4.3-2.9-6.5c-1.6-2.2-2.6-3.4-3.9-5.5c-2.6-3.9-5-7.9-7.9-11.7c-3-4-5.2-7.5-8-11.7c-6.3-9.6-6.2-10.8-11.5-10.8
		c-3.3,0-22.1,29.2-25.3,33.7C664.7,84.4,659.9,90.7,659.6,94L659.6,94z"/>
	<path class="st0" d="M518.2,67.4c0,8.4-0.7,12,3.7,19.4c1.9,3.1,5.5,7.2,10,7.2h36v-7.7c-31.5,0-28.3,3.3-28.3-23.1
		c0-3.1,0.7-4.8,1.7-6.8c4.9,0,9.7,0,14.6,0c12.4,0,12,2.2,12-8.6h-36C523.9,47.8,518.2,59.1,518.2,67.4L518.2,67.4z"/>
	<path class="st0" d="M279.8,67.4c0,8.4-0.6,12,3.8,19.4c1.9,3.1,5.5,7.2,9.9,7.2h36v-7.7c-31.5,0-28.3,3.3-28.3-23.1
		c0-3.1,0.7-4.8,1.7-6.8c4.8,0,9.7,0,14.6,0c12.4,0,12,2.2,12-8.6h-36C285.6,47.8,279.8,59.1,279.8,67.4L279.8,67.4z"/>
	<path class="st0" d="M333,67.4c0,8.4-0.7,12,3.7,19.4c1.9,3.1,5.5,7.2,10,7.2h35.1v-7.7c-30.5,0-27.4,3.2-27.4-23.1
		c0-3.1,0.7-4.8,1.7-6.8c4.6,0,9.2,0,13.7,0c12.4,0,12,2.2,12-8.6h-35.1C338.7,47.8,333,59.1,333,67.4L333,67.4z"/>
	<path class="st0" d="M441.9,67.4v24c0,4.3,7.3,2.6,18.9,2.6c3.6,0,2.7-3.9,2.6-7.7l-0.1-21.5c0-5.2,0.6-5.5,2.6-8.5
		c4.6,0,9.1,0,13.7,0c12.4,0,12,2.2,12-8.6h-36C445.6,47.8,441.9,57.3,441.9,67.4L441.9,67.4z"/>
	<path class="st0" d="M619.3,53.7c0,4,4.8,2.6,14.6,2.6V94h19.7V56.3c16.9,0,14.6,1.9,14.6-8.6h-48.9V53.7z"/>
	<path class="st0" d="M233.5,56.3h12V94h19.7V56.3c16.9,0,14.6,1.9,14.6-8.6h-46.3V56.3z"/>
	<rect x="495" y="47.8" class="st0" width="18.9" height="46.2"/>
	<path class="st0" d="M729.9,50.3c0,5.6-0.1,6,5.2,6V94h18V52.9c0-6.9-14.4-5.1-20.6-5.1C730.5,47.8,729.9,48.4,729.9,50.3
		L729.9,50.3z"/>
	<path class="st0" d="M522.7,116.2c1.7,3,0.9,10,0.9,13.7h7.7c0-1.5-0.2-5.7-0.1-6.9c0.5-3.2-0.3-2.5,3.5-3.4
		c1.4,2.6,0.9,5.8,0.9,10.3h7.7c0-1.5-0.2-5.7-0.1-6.9c0.5-3.2-0.3-2.5,3.5-3.4c1.4,2.6,0.9,5.8,0.9,10.3h7.7
		c0-7.3,0.5-7.6-0.9-13.7c-8.9-2.1-7.2-0.1-10.7,0.5c-5,0.7,0.8-1.3-7.3-1.3c-4.2,0-2.4,1.8-6,0.8
		C524.8,114.7,527.8,115.6,522.7,116.2L522.7,116.2z"/>
	<path class="st0" d="M234.6,129.9h16.3c0.9,0,4.1,3.6,4.3-5.1c-12,0-11.7,1-12-3.4c13.9,0,7.5,2.6,11.2-5.1h-11.2v-2.6h11.2v-5.1
		h-19.7V129.9z"/>
	<path class="st0" d="M500.4,129.9h16.3c0.9,0,4.1,3.6,4.3-5.1c-12,0-11.7,1-12-3.4c13.9,0,7.5,2.6,11.2-5.1h-11.2v-2.6h11.2v-5.1
		h-19.7V129.9z"/>
	<path class="st0" d="M378.6,129.9h16.3c3.6,0,0.5,2.6,3.2-0.3c1.1-1.1,1-2.9,1.1-4.8c-12,0-11.7,1-12-3.4c13.9,0,7.4,2.6,11.1-5.1
		h-11.1v-2.6h11.1v-5.1h-19.7V129.9z"/>
	<path class="st0" d="M602.4,117.9c0,5,6.7,18.4,14.7,8.6c0.1-0.1,0.3-0.4,0.4-0.5c0.1-0.1,0.3-0.3,0.4-0.5c1.3,5,3.5,4.3,9.4,4.3
		c0.9-3.2,0.8-1.8,2.7-4.1c3.2-3.9,2.4-4.1,2.4-10.4h-6.9c0,5,0.6,7.5-3.4,8.6l-0.9-8.6h-6.9c0,11.2-0.3,3.9-1.7,9.4
		c-3.2-2.4-2.6-4-2.6-9.4C604.6,115.3,602.4,114.6,602.4,117.9L602.4,117.9z"/>
	<path class="st0" d="M566.4,123c1.2-4.5,2.3-3.4,6-2.6v4.3C568.2,125.7,568.9,126.8,566.4,123L566.4,123z M558.7,117.9V135h7.7v-6
		c13.6,6.5,20.9-13.7,5.1-13.7c-2.1,0-3.3,0.5-4.4,0.5C563.8,115.9,558.7,113.5,558.7,117.9L558.7,117.9z"/>
	<path class="st0" d="M284.3,122.2c2.5-3.7,1.8-2.7,6-1.7v4.3c-2.4,0.6-2,1.2-3.9,0.5C284,124.3,285,123.5,284.3,122.2L284.3,122.2z
		 M276.6,117.9V135h7.7v-6c5.4,2.6,12.1,0.6,13.7-4.3c3.6-11.3-12.2-8.9-13-8.8C281.7,115.9,276.6,113.5,276.6,117.9L276.6,117.9z"
		/>
	<path class="st0" d="M467.8,112.8v17.1h7.7c0-10.5-0.9-9.2,3.4-10.3c1.4,2.6,0.9,5.8,0.9,10.3h7.7c0-11.6,2.7-17.1-12-13.7v-7.7
		h-8.6C467.4,110.4,467.8,110.5,467.8,112.8L467.8,112.8z"/>
	<path class="st0" d="M400.9,116.2c1.4,6.1,0.9,6.4,0.9,13.7h7.7c0-10.5-0.9-9.2,3.4-10.3c1.4,2.6,0.9,5.8,0.9,10.3h7.7
		c0-13.9,1.6-14.5-7.7-14.5c-4.7,0-1,1.7-5.8,0.6C403.4,114.8,405.1,115.8,400.9,116.2L400.9,116.2z"/>
	<path class="st0" d="M715.4,46.9c0,20-1.6,19.7,4.3,19.7c3.3,0,4.2-4.3,5.2-6.8c3.1-7.8,2.6-7.1,2.6-15.4
		C719,44.3,715.4,43.2,715.4,46.9L715.4,46.9z"/>
	<path class="st0" d="M256.9,117.9c0,2.6,1.5,2.9,3.4,3.4c-1.5,5.6-3.4,0.6-3.4,8.6c10.7,0,3.4-1,9.4-2.6c4.2,2.8,0.4,2.6,9.4,2.6
		c-0.1-5.3-1.8-4-4.3-7.7c2.8-1.9,4.2-2.5,4.3-6.9c-10,0-6-0.3-10.3,2.6c-2.3-3.1-3.7-2.6-8.6-2.6V117.9z"/>
	<path class="st0" d="M644.4,121.3h-4.3C642.1,118.6,642.4,118.6,644.4,121.3L644.4,121.3z M633.3,122.2c0,10.9,13.4,7.2,18,6.8
		c-0.3-3.4-0.2-4.4-4-4.1c-1.3,0.1-3.5,2.2-7.1-1h12c0-7.7-3.6-8.6-11.1-8.6C636.8,115.3,633.3,117.8,633.3,122.2L633.3,122.2z"/>
	<path class="st0" d="M358.9,121.3h-4.3C356.6,118.6,356.9,118.6,358.9,121.3L358.9,121.3z M347.8,122.2c0,10.9,13.4,7.2,18,6.8
		c-0.6-6.9-3-3.3-7.7-3.5c-2.2-0.1-2.2-0.5-3.5-1.6h12c0-7.7-3.7-8.6-11.2-8.6C351.3,115.3,347.8,117.8,347.8,122.2L347.8,122.2z"/>
	<path class="st0" d="M317.8,124.7v-4.3c4.2-1,3.5-2,6,1.7C322.6,126.7,321.5,125.6,317.8,124.7L317.8,124.7z M310.9,122.2
		c0,10.7,19.7,10.7,19.7,0C330.6,112.8,310.9,112.8,310.9,122.2L310.9,122.2z"/>
	<path class="st0" d="M588.7,124.7v-4.3c3.7-0.9,4.8-1.9,6,2.6C592.2,126.8,592.9,125.7,588.7,124.7L588.7,124.7z M581.8,122.2
		c0,10.7,19.7,10.7,19.7,0C601.5,112.8,581.8,112.8,581.8,122.2L581.8,122.2z"/>
	<rect x="542.2" y="64.9" class="st0" width="25.7" height="7.7"/>
	<rect x="465.9" y="64.9" class="st0" width="25.7" height="7.7"/>
	<rect x="303.8" y="64.9" class="st0" width="25.7" height="7.7"/>
	<path class="st0" d="M301.5,112.8v17.1h7.7v-21.4h-8.6C301.1,110.4,301.5,110.5,301.5,112.8L301.5,112.8z"/>
	<path class="st0" d="M449.8,122.2c0,9.1,8.2,7.7,15.4,7.7c-0.2-8.2-3-0.9-8.6-6.8c2.6-4.8,2.7-3,7.7-2.6c1.3-5.6,1.7-5.1-6.9-5.1
		C453.6,115.3,449.8,118.1,449.8,122.2L449.8,122.2z"/>
	<path class="st0" d="M332.3,116.2l0.9,13.7h7.7c0-10.9-0.9-10.3,5.2-10.3c0.2-2.3,0.4-2.3,0.9-4.3L332.3,116.2z"/>
	<path class="st0" d="M423.2,116.2l0.9,13.7h7.7c0-10.9-0.9-10.3,5.2-10.3c0.2-2.3,0.4-2.3,0.9-4.3L423.2,116.2z"/>
	<path class="st0" d="M653.8,116.2l0.9,13.7h7.7c0-10.9-0.9-10.3,5.2-10.3c0.2-2.3,0.4-2.3,0.9-4.3c-1.9,0-3.2,0.2-4.8,0.3
		L653.8,116.2z"/>
	<rect x="439.5" y="115.3" class="st0" width="7.7" height="14.5"/>
	<path class="st0" d="M439.5,111.1c0,3.8,7.7,3.8,7.7,0C447.2,107.3,439.5,107.3,439.5,111.1L439.5,111.1z"/>
</g>
</svg>
